<?xml version="1.0" encoding="iso-8859-1"?>
<!-- Generator: Adobe Illustrator 21.0.0, SVG Export Plug-In . SVG Version: 6.00 Build 0)  -->
<svg version="1.1" id="Layer_1" xmlns="http://www.w3.org/2000/svg" xmlns:xlink="http://www.w3.org/1999/xlink" x="0px" y="0px"
	 viewBox="0 0 100.353 100.353" style="enable-background:new 0 0 100.353 100.353;" xml:space="preserve">
<path style="fill:#231F20;" d="M89.079,9.42H36.156c-0.829,0-1.5,0.672-1.5,1.5v21.628H10.922c-0.829,0-1.5,0.671-1.5,1.5v42.08
	c0,0.829,0.671,1.5,1.5,1.5H23.47L35.277,90.11c0.289,0.306,0.686,0.469,1.09,0.469c0.186,0,0.374-0.035,0.554-0.106
	c0.571-0.227,0.945-0.779,0.946-1.393l0.006-11.452h28.551c0.829,0,1.5-0.671,1.5-1.5V54.505h21.155c0.829,0,1.5-0.672,1.5-1.5
	V10.92C90.579,10.092,89.908,9.42,89.079,9.42z M64.924,74.628h-28.55c-0.828,0-1.5,0.671-1.5,1.5l-0.005,9.186l-9.663-10.216
	c-0.284-0.299-0.678-0.469-1.09-0.469H12.422v-39.08h22.234v17.457c0,0.828,0.671,1.5,1.5,1.5h10.625v10.521
	c0,0.604,0.362,1.149,0.919,1.383c0.188,0.079,0.385,0.117,0.58,0.117c0.386,0,0.765-0.149,1.051-0.43l11.812-11.591h3.781V74.628z
	 M87.579,51.505H60.531c-0.393,0-0.77,0.154-1.051,0.429l-9.7,9.518v-8.447c0-0.829-0.671-1.5-1.5-1.5H37.655V12.42h49.923v39.084
	H87.579z"/>
</svg>
